<svg fill="#a58dfc" height="101px" width="101px" version="1.1" id="Layer_1" xmlns="http://www.w3.org/2000/svg" xmlns:xlink="http://www.w3.org/1999/xlink" viewBox="0 0 512 512" xml:space="preserve" stroke="#a58dfc"><g id="SVGRepo_bgCarrier" stroke-width="0"></g><g id="SVGRepo_tracerCarrier" stroke-linecap="round" stroke-linejoin="round"></g><g id="SVGRepo_iconCarrier"> <g> <g> <path d="M110.933,0C49.766,0,0,49.766,0,110.933s49.766,110.933,110.933,110.933S221.867,172.1,221.867,110.933S172.1,0,110.933,0 z M110.933,204.8c-51.755,0-93.867-42.112-93.867-93.867c0-51.755,42.112-93.867,93.867-93.867 c51.755,0,93.867,42.112,93.867,93.867C204.8,162.688,162.688,204.8,110.933,204.8z"></path> </g> </g> <g> <g> <path d="M405.623,290.364c-18.5-35.576-55.637-59.964-98.423-59.964c-61.167,0-110.933,49.766-110.933,110.933 c0,59.614,47.3,108.254,106.308,110.703C321.553,488.61,359.612,512,401.067,512C462.234,512,512,462.234,512,401.067 C512,341.436,464.666,292.779,405.623,290.364z M213.333,341.333c0-51.755,42.112-93.867,93.867-93.867 s93.867,42.112,93.867,93.867c0,51.755-42.112,93.867-93.867,93.867S213.333,393.088,213.333,341.333z M401.067,494.933 c-32.358,0-62.285-16.828-79.334-43.733c54.306-7.151,96.401-53.632,96.401-109.867c0-11.597-1.801-22.775-5.12-33.289 c46.123,5.905,81.92,45.321,81.92,93.022C494.933,452.821,452.821,494.933,401.067,494.933z"></path> </g> </g> <g> <g> <path d="M468.531,149.982c-1.408-2.995-4.42-4.915-7.731-4.915h-34.133v-51.2c0-2.261-0.896-4.437-2.5-6.033L390.033,53.7 c-1.596-1.604-3.763-2.5-6.033-2.5H256c-4.719,0-8.533,3.823-8.533,8.533s3.814,8.533,8.533,8.533h124.467L409.6,97.399v47.667 h-34.133c-3.311,0-6.323,1.92-7.723,4.915c-1.408,3.004-0.947,6.545,1.169,9.079l42.667,51.2c1.621,1.946,4.019,3.072,6.554,3.072 s4.932-1.126,6.562-3.072l42.667-51.2C469.478,156.518,469.939,152.977,468.531,149.982z M418.133,191.471l-24.448-29.338h48.896 L418.133,191.471z"></path> </g> </g> </g></svg>